<svg aria-hidden="true" style="position: absolute; width: 0; height: 0; overflow: hidden;" version="1.1" xmlns="http://www.w3.org/2000/svg" xmlns:xlink="http://www.w3.org/1999/xlink">
<defs>
<symbol id="icon_addMore" viewBox="0 0 32 32">
<path fill="#ff6b08" style="fill: var(--color1, #ff6b08)" d="M32 16c0 8.837-7.163 16-16 16s-16-7.163-16-16c0-8.837 7.163-16 16-16s16 7.163 16 16z"></path>
<path fill="#fff" style="fill: var(--color2, #fff)" d="M20.431 15.508h-3.938v-3.939c0-0.272-0.221-0.492-0.492-0.492s-0.492 0.221-0.492 0.492v3.939h-3.939c-0.272 0-0.492 0.221-0.492 0.492s0.221 0.492 0.492 0.492h3.939v3.938c0 0.272 0.221 0.492 0.492 0.492s0.492-0.221 0.492-0.492v-3.938h3.938c0.272 0 0.492-0.221 0.492-0.492s-0.221-0.492-0.492-0.492z"></path>
</symbol>
<symbol id="icon_book" viewBox="0 0 32 32">
<path fill="#f5f7fa" style="fill: var(--color3, #f5f7fa)" d="M32 16c0 8.837-7.163 16-16 16s-16-7.163-16-16c0-8.837 7.163-16 16-16s16 7.163 16 16z"></path>
<path fill="#a6abb9" style="fill: var(--color4, #a6abb9)" d="M24.242 8.242c-1.076-0.339-2.259-0.485-3.394-0.485-1.891 0-3.927 0.388-5.333 1.455-1.406-1.067-3.442-1.455-5.333-1.455s-3.927 0.388-5.333 1.455v14.206c0 0.242 0.242 0.485 0.485 0.485 0.097 0 0.145-0.049 0.242-0.049 1.309-0.63 3.2-1.067 4.606-1.067 1.891 0 3.927 0.388 5.333 1.455 1.309-0.824 3.685-1.455 5.333-1.455 1.6 0 3.248 0.291 4.606 1.018 0.097 0.049 0.145 0.049 0.242 0.049 0.242 0 0.485-0.242 0.485-0.485v-14.158c-0.582-0.436-1.212-0.727-1.939-0.97zM24.242 21.333c-1.067-0.339-2.23-0.485-3.394-0.485-1.648 0-4.024 0.63-5.333 1.455v-11.152c1.309-0.824 3.685-1.455 5.333-1.455 1.164 0 2.327 0.145 3.394 0.485v11.151z"></path>
<path fill="#a6abb9" style="fill: var(--color4, #a6abb9)" d="M20.849 13.576c0.853 0 1.678 0.087 2.424 0.252v-1.474c-0.766-0.145-1.59-0.233-2.424-0.233-1.648 0-3.142 0.281-4.364 0.805v1.61c1.096-0.621 2.618-0.96 4.364-0.96z"></path>
<path fill="#a6abb9" style="fill: var(--color4, #a6abb9)" d="M16.485 15.505v1.61c1.096-0.621 2.618-0.96 4.364-0.96 0.853 0 1.678 0.087 2.424 0.252v-1.474c-0.766-0.145-1.59-0.233-2.424-0.233-1.648 0-3.142 0.291-4.364 0.805z"></path>
<path fill="#a6abb9" style="fill: var(--color4, #a6abb9)" d="M20.849 17.29c-1.648 0-3.142 0.281-4.364 0.805v1.61c1.096-0.621 2.618-0.96 4.364-0.96 0.853 0 1.678 0.087 2.424 0.252v-1.474c-0.766-0.155-1.59-0.233-2.424-0.233z"></path>
</symbol>
<symbol id="icon_traningLine" viewBox="0 0 8640 32">
<path fill="none" stroke="#e0e5eb" style="stroke: var(--color1, #e0e5eb)" stroke-linejoin="miter" stroke-linecap="butt" stroke-miterlimit="4" stroke-width="32" d="M0 16l8640-0.001"></path>
</symbol>
<symbol id="icon_delete" viewBox="0 0 25 32">
<path fill="#a6abb9" style="fill: var(--color4, #a6abb9)" d="M19.556 10.667v17.778h-14.222v-17.778h14.222zM16.889 0h-8.889l-1.778 1.778h-6.222v3.556h24.889v-3.556h-6.222l-1.778-1.778zM23.111 7.111h-21.333v21.333c0 1.956 1.6 3.556 3.556 3.556h14.222c1.956 0 3.556-1.6 3.556-3.556v-21.333z"></path>
</symbol>
<symbol id="icon_enter" viewBox="0 0 27 32">
<path fill="#ff6b08" style="fill: var(--color1, #ff6b08)" d="M22.907 22.883c-0.063-0.305-0.311-0.447-0.493-0.638-1.316-1.39-2.653-2.768-3.972-4.159-0.562-0.59-0.611-1.221-0.168-1.669s1.062-0.409 1.609 0.162c2.108 2.186 4.21 4.378 6.306 6.576 0.644 0.676 0.636 1.149-0.013 1.831-2.078 2.181-4.162 4.355-6.251 6.524-0.576 0.598-1.141 0.644-1.609 0.171s-0.398-1.085 0.158-1.671c1.303-1.373 2.618-2.734 3.922-4.104 0.183-0.192 0.424-0.34 0.499-0.644-0.206-0.211-0.461-0.111-0.687-0.111-6.87-0.007-13.743-0.011-20.619-0.011-1.303 0-1.579-0.296-1.579-1.654 0-7.27 0-14.543 0-21.817-0.016-0.254-0.009-0.51 0.022-0.763 0.111-0.563 0.453-0.915 1.015-0.905s0.893 0.365 0.997 0.929c0.025 0.227 0.031 0.457 0.016 0.685 0 6.866 0.010 13.731-0.012 20.589 0 0.648 0.177 0.799 0.774 0.796 6.456-0.021 12.912-0.012 19.368-0.017 0.249 0.012 0.505 0.101 0.718-0.101z"></path>
</symbol>
<symbol id="icon_flag" viewBox="0 0 28 32">
<path fill="#a6abb9" style="fill: var(--color4, #a6abb9)" d="M13.854 3.765l0.753 3.765h9.864v11.294h-6.325l-0.753-3.765h-13.628v-11.294h10.089zM16.941 0h-16.941v32h3.765v-13.176h10.541l0.753 3.765h13.176v-18.824h-10.541l-0.753-3.765z"></path>
</symbol>
<symbol id="icon_getBack" viewBox="0 0 64 32">
<path fill="#ff6b08" style="fill: var(--color1, #ff6b08)" d="M0.733 17.27c0.001 0.001 0.001 0.002 0.002 0.002l13.063 13c0.979 0.974 2.562 0.97 3.536-0.009s0.97-2.561-0.008-3.535l-8.771-8.728h52.945c1.381 0 2.5-1.119 2.5-2.5s-1.119-2.5-2.5-2.5h-52.945l8.77-8.728c0.979-0.974 0.982-2.557 0.008-3.535s-2.557-0.982-3.536-0.008l-13.063 13c-0.001 0.001-0.001 0.002-0.002 0.002-0.979 0.977-0.976 2.565 0 3.539z"></path>
</symbol>
<symbol id="icon_goodJob" viewBox="0 0 35 32">
<path fill="#a6abb9" style="fill: var(--color4, #a6abb9)" d="M12.696 31.478h14.087c1.299 0 2.41-0.783 2.88-1.91l4.727-11.035c0.141-0.36 0.219-0.736 0.219-1.143v-3.13c0-1.722-1.409-3.13-3.13-3.13h-9.877l1.487-7.153 0.047-0.501c0-0.642-0.266-1.237-0.689-1.659l-1.659-1.643-10.315 10.315c-0.563 0.563-0.908 1.346-0.908 2.207v15.652c0 1.722 1.409 3.13 3.13 3.13zM12.696 12.696l6.793-6.793-2.097 8.358h14.087v3.13l-4.696 10.957h-14.087v-15.652zM0.174 12.696h6.261v18.783h-6.261v-18.783z"></path>
</symbol>
<symbol id="icon_google" viewBox="0 0 32 32">
<path  fill="#4285f4" style="fill: var(--color1, #4285f4)" d="M31.619 16.299c0-1.311-0.106-2.268-0.337-3.26h-14.971v5.917h8.787c-0.177 1.471-1.134 3.685-3.26 5.173l-0.030 0.198 4.733 3.667 0.328 0.033c3.012-2.782 4.748-6.874 4.748-11.729z"></path>
<path  fill="#34a853" style="fill: var(--color2, #34a853)" d="M16.311 31.89c4.305 0 7.919-1.417 10.559-3.862l-5.032-3.898c-1.346 0.939-3.154 1.595-5.528 1.595-4.217 0-7.795-2.781-9.071-6.626l-0.187 0.016-4.922 3.809-0.064 0.179c2.622 5.209 8.008 8.788 14.244 8.788z"></path>
<path  fill="#fbbc05" style="fill: var(--color3, #fbbc05)" d="M7.24 19.099c-0.337-0.992-0.531-2.055-0.531-3.154s0.195-2.161 0.514-3.154l-0.009-0.211-4.984-3.87-0.163 0.078c-1.081 2.161-1.701 4.589-1.701 7.158s0.62 4.996 1.701 7.157l5.173-4.004z"></path>
<path  fill="#eb4335" style="fill: var(--color4, #eb4335)" d="M16.311 6.165c2.994 0 5.014 1.293 6.165 2.374l4.5-4.394c-2.764-2.569-6.36-4.146-10.665-4.146-6.236 0-11.622 3.579-14.244 8.787l5.156 4.004c1.293-3.845 4.872-6.626 9.089-6.626z"></path>
</symbol>
<symbol id="icon_greaterArrow" viewBox="0 0 16 32">
<path fill="#ff6b08" style="fill: var(--color5, #ff6b08)" d="M15.662 15.122l-13.703-14.76c-0.449-0.483-1.176-0.482-1.624 0.003s-0.447 1.27 0.002 1.754l12.887 13.882-12.888 13.881c-0.449 0.484-0.45 1.269-0.002 1.754 0.225 0.243 0.519 0.365 0.813 0.365s0.587-0.121 0.811-0.362l13.703-14.76c0.216-0.232 0.338-0.549 0.338-0.878s-0.122-0.645-0.338-0.878z"></path>
</symbol>
<symbol id="icon_headerLine" viewBox="0 0 1 32">
<path fill="none" stroke="#e0e5eb" style="stroke: var(--color5, #e0e5eb)" stroke-linejoin="miter" stroke-linecap="butt" stroke-miterlimit="4" stroke-width="0.9697" d="M0.485 0v32"></path>
</symbol>
<symbol id="icon_home" viewBox="0 0 38 32">
<path fill="#a6abb9" style="fill: var(--color4, #a6abb9)" d="M18.824 5.064l9.412 8.471v14.701h-3.765v-11.294h-11.294v11.294h-3.765v-14.701l9.412-8.471zM18.824 0l-18.824 16.941h5.647v15.059h11.294v-11.294h3.765v11.294h11.294v-15.059h5.647l-18.824-16.941z"></path>
</symbol>
<symbol id="icon_quotes" viewBox="0 0 43 32">
<path fill="#ff6b08" style="fill: var(--color1, #ff6b08)" d="M37.293 0.856l1 1.555c-6.886 4.516-10.328 9.033-10.328 13.549 0 2.295 1 3.628 2.999 3.998l4.664-4.331c1.481 0.518 2.813 1.481 3.998 2.888 1.259 1.333 1.888 3.073 1.888 5.22s-0.852 3.998-2.554 5.553c-1.703 1.481-3.961 2.221-6.775 2.221-2.74 0-5.035-0.926-6.886-2.776-1.777-1.925-2.665-4.553-2.665-7.885 0-7.256 4.887-13.919 14.66-19.991zM16.414 0.856l1 1.555c-6.886 4.516-10.328 9.033-10.328 13.549 0 2.295 1 3.628 2.999 3.998l4.664-4.331c1.481 0.518 2.813 1.481 3.998 2.888 1.259 1.333 1.888 3.073 1.888 5.22s-0.852 3.998-2.554 5.553c-1.703 1.481-3.961 2.221-6.775 2.221-2.739 0-5.035-0.926-6.886-2.776-1.777-1.925-2.665-4.553-2.665-7.885 0-7.256 4.887-13.919 14.66-19.991z"></path>
</symbol>
<symbol id="icon_calendar" viewBox="0 0 32 32">
<path fill="#52555f" style="fill: var(--color1, #52555f)" d="M27.961 3.307h-2.099v-0.514c0-0.518-0.42-0.938-0.937-0.938s-0.937 0.42-0.937 0.938v0.514h-2.587v-0.514c0-0.518-0.42-0.938-0.938-0.938s-0.937 0.42-0.937 0.938v0.514h-2.587v-0.514c0-0.518-0.42-0.938-0.937-0.938s-0.938 0.42-0.938 0.938v0.514h-2.587v-0.514c0-0.518-0.42-0.938-0.938-0.938s-0.938 0.42-0.938 0.938v0.514h-2.587v-0.514c0-0.518-0.42-0.938-0.938-0.938s-0.938 0.42-0.938 0.938v0.514h-2.099c-2.227 0-4.039 1.812-4.039 4.039v18.758c0 2.227 1.812 4.039 4.039 4.039h23.921c2.227 0 4.039-1.812 4.039-4.039v-18.758c0-2.227-1.812-4.039-4.039-4.039zM30.125 26.105c0 1.193-0.971 2.164-2.164 2.164h-23.921c-1.193 0-2.164-0.971-2.164-2.164v-15.333h28.25v15.333zM30.125 8.897h-28.25v-1.55c0-1.193 0.971-2.164 2.164-2.164h2.099v0.362c0 0.518 0.42 0.938 0.938 0.938s0.938-0.42 0.938-0.938v-0.362h2.587v0.362c0 0.518 0.42 0.938 0.938 0.938s0.938-0.42 0.938-0.938v-0.362h2.587v0.362c0 0.518 0.42 0.938 0.938 0.938s0.937-0.42 0.937-0.938v-0.362h2.587v0.362c0 0.518 0.42 0.938 0.937 0.938s0.938-0.42 0.938-0.938v-0.362h2.587v0.362c0 0.518 0.42 0.938 0.937 0.938s0.937-0.42 0.937-0.938v-0.362h2.099c1.193 0 2.164 0.971 2.164 2.164v1.55z"></path>
<path fill="#52555f" style="fill: var(--color1, #52555f)" d="M10.451 12.771h-3.699c-0.518 0-0.938 0.42-0.938 0.938v3.828c0 0.518 0.42 0.937 0.938 0.937h3.699c0.518 0 0.938-0.42 0.938-0.937v-3.828c0-0.518-0.42-0.938-0.938-0.938zM9.513 16.598h-1.824v-1.952h1.824v1.952z"></path>
<path fill="#52555f" style="fill: var(--color1, #52555f)" d="M17.85 12.771h-3.699c-0.518 0-0.938 0.42-0.938 0.938v3.828c0 0.518 0.42 0.937 0.938 0.937h3.699c0.518 0 0.937-0.42 0.937-0.937v-3.828c0-0.518-0.42-0.938-0.937-0.938zM16.912 16.598h-1.824v-1.952h1.824v1.952z"></path>
<path fill="#52555f" style="fill: var(--color1, #52555f)" d="M25.248 12.771h-3.699c-0.518 0-0.937 0.42-0.937 0.938v3.828c0 0.518 0.42 0.937 0.937 0.937h3.699c0.518 0 0.937-0.42 0.937-0.937v-3.828c0-0.518-0.42-0.938-0.937-0.938zM24.311 16.598h-1.824v-1.952h1.824v1.952z"></path>
<path fill="#52555f" style="fill: var(--color1, #52555f)" d="M10.451 20.041h-3.699c-0.518 0-0.938 0.42-0.938 0.938v3.827c0 0.518 0.42 0.938 0.938 0.938h3.699c0.518 0 0.938-0.42 0.938-0.938v-3.827c0-0.518-0.42-0.938-0.938-0.938zM9.513 23.868h-1.824v-1.952h1.824v1.952z"></path>
<path fill="#52555f" style="fill: var(--color1, #52555f)" d="M17.85 20.041h-3.699c-0.518 0-0.938 0.42-0.938 0.938v3.827c0 0.518 0.42 0.938 0.938 0.938h3.699c0.518 0 0.937-0.42 0.937-0.938v-3.827c0-0.518-0.42-0.938-0.937-0.938zM16.912 23.868h-1.824v-1.952h1.824v1.952z"></path>
<path fill="#52555f" style="fill: var(--color1, #52555f)" d="M25.248 20.041h-3.699c-0.518 0-0.937 0.42-0.937 0.938v3.827c0 0.518 0.42 0.938 0.937 0.938h3.699c0.518 0 0.937-0.42 0.937-0.938v-3.827c0-0.518-0.42-0.938-0.937-0.938zM24.311 23.868h-1.824v-1.952h1.824v1.952z"></path>
</symbol>
<symbol id="icon_dateArrow" viewBox="0 0 69 32">
<path d="M34.667 32l-30.022-28h60.045l-30.022 28z"></path>
</symbol>
</defs>
</svg>
